<?xml version="1.0" encoding="utf-8"?>
<!-- Generator: Adobe Illustrator 17.0.0, SVG Export Plug-In . SVG Version: 6.00 Build 0)  -->
<!DOCTYPE svg PUBLIC "-//W3C//DTD SVG 1.1//EN" "http://www.w3.org/Graphics/SVG/1.1/DTD/svg11.dtd">
<svg version="1.1" id="Layer_1" xmlns="http://www.w3.org/2000/svg" xmlns:xlink="http://www.w3.org/1999/xlink" x="0px" y="0px"
	 width="360px" height="200px" viewBox="0 0 360 200" enable-background="new 0 0 360 200" xml:space="preserve">
<g>
	<g>
		<g>
			<path fill="#FFFFFF" d="M207.974,90.672c0,0,0.48,0,0.48-0.48V29.275c0,0,0-0.48-0.48-0.48h-3.356c0,0-0.48,0-0.48,0.48v48.537
				c0,4.227,0.359,7.195,0.359,7.195h-0.135c0,0-0.135,0-0.36-0.424c0,0-1.123-2.454-3.463-6.501L172.27,29.21
				c0,0-0.24-0.415-0.721-0.415h-5.605c0,0-0.48,0-0.48,0.48v60.917c0,0,0,0.48,0.48,0.48h3.357c0,0,0.48,0,0.48-0.48V40.487
				c0-4.137-0.27-8.184-0.27-8.184h0.09c0,0,0.09,0,0.316,0.423c0,0,1.663,3.444,4.091,7.671l28.989,49.86
				c0,0,0.241,0.416,0.721,0.416h4.256L207.974,90.672L207.974,90.672z"/>
			<path fill="#FFFFFF" d="M287.506,66.21h-18.584c0,0-0.961,0-0.664-0.914l7.887-24.179c1.709-5.127,2.158-7.465,2.158-7.465h0.09
				c0,0,0.09,0,0.324,0.933c0,0,0.037,1.495,1.654,6.622l7.799,24.088C288.17,65.294,288.467,66.21,287.506,66.21 M301.375,89.763
				l-20.602-60.059c0,0-0.31-0.909-1.273-0.909h-2.125c0,0-0.961,0-1.275,0.909l-20.775,60.061c0,0-0.314,0.908,0.646,0.908h2.934
				c0,0,0.961,0,1.264-0.912l6.41-19.311c0,0,0.303-0.913,1.264-0.913h20.742c0,0,0.961,0,1.258,0.915l6.244,19.306
				c0,0,0.295,0.915,1.256,0.915h3.385C300.727,90.672,301.688,90.672,301.375,89.763"/>
			<path fill="#FFFFFF" d="M352.918,90.672c0,0,0.48,0,0.48-0.48V29.275c0,0,0-0.48-0.48-0.48h-3.355c0,0-0.48,0-0.48,0.48v48.537
				c0,4.227,0.359,7.195,0.359,7.195h-0.135c0,0-0.135,0-0.359-0.424c0,0-1.123-2.454-3.463-6.501l-28.27-48.871
				c0,0-0.24-0.415-0.721-0.415h-5.605c0,0-0.481,0-0.481,0.48v60.917c0,0,0,0.48,0.481,0.48h3.357c0,0,0.478,0,0.478-0.48V40.487
				c0-4.137-0.268-8.184-0.268-8.184h0.088c0,0,0.09,0,0.316,0.423c0,0,1.662,3.444,4.092,7.671l28.988,49.86
				c0,0,0.242,0.416,0.721,0.416h4.257L352.918,90.672L352.918,90.672z"/>
			<path fill="#FFFFFF" d="M107.07,67.725c0,0,0.135,0.461-0.345,0.461H91.157c0,0-0.48,0-0.34-0.459l6.507-21.306
				c1.437-4.587,1.707-7.465,1.707-7.465h0.09c0,0,0.09,0,0.191,0.469c0,0,0.168,2.409,1.515,6.996L107.07,67.725z M124.871,90.761
				c0,0,0.48,0,0.33-0.456l-20.09-60.965c0,0-0.15-0.456-0.631-0.456h-9.82c0,0-0.48,0-0.631,0.456L73.85,90.305
				c0,0-0.151,0.456,0.33,0.456h9.28c0,0,0.481,0,0.623-0.459L88.738,75.3c0,0,0.142-0.458,0.622-0.458h18.982
				c0,0,0.481,0,0.618,0.46l4.486,14.999c0,0,0.138,0.46,0.618,0.46H124.871z M66.585,90.761c0,0,0.48,0,0.229-0.41l-19.89-32.458
				c0,0-0.251-0.41,0.018-0.808L65.718,29.28c0,0,0.269-0.398-0.212-0.398H54.79c0,0-0.48,0-0.735,0.407L36.613,57.124h-0.09
				c0,0-0.089,0-0.089-0.48v-27.28c0,0,0-0.481-0.48-0.481H25.505c0,0-0.48,0-0.48,0.481V90.28c0,0,0,0.48,0.48,0.48h10.448
				c0,0,0.48,0,0.48-0.48V59.462h0.089c0,0,0.09,0,0.326,0.418l17.224,30.462c0,0,0.237,0.418,0.717,0.418L66.585,90.761
				L66.585,90.761z"/>
			<path fill="#FFFFFF" d="M74.383,168.627c0,0,0.481,0,0.427-0.477l-6.814-60.923c0,0-0.053-0.478-0.533-0.478H56.921
				c0,0-0.48,0-0.613,0.462l-11.28,39.201c-1.168,3.958-1.618,6.925-1.618,6.925h-0.09c0,0-0.09,0-0.199-0.467
				c0,0-0.43-2.5-1.508-6.458l-10.925-39.2c0,0-0.129-0.463-0.609-0.463H19.536c0,0-0.481,0-0.534,0.478l-6.866,61.4h9.616
				c0.09-1.799,3.954-41.011,3.954-41.011c0.36-3.868,0.27-7.376,0.27-7.376h0.179c0,0,0.719,3.508,1.798,7.376
				c0,0,11.054,39.212,11.683,41.011h6.471c0.719-2.068,11.772-40.921,11.772-40.921c1.168-3.958,1.797-7.466,1.797-7.466h0.09
				c0,0,0.089,0,0.107,0.48c0,0-0.107,3.117,0.252,6.985c0,0,3.864,39.392,3.926,40.443c0,0,0.029,0.479,0.509,0.479L74.383,168.627
				L74.383,168.627z"/>
			<path fill="#FFFFFF" d="M124.351,150.639V107.23c0,0,0-0.481-0.48-0.481h-9.652c0,0-0.48,0-0.48,0.481v43.321
				c0,6.654-4.138,10.252-9.354,10.252c-5.127,0-9.444-3.598-9.444-10.252V107.23c0,0,0-0.481-0.48-0.481H83.999
				c0,0-0.48,0-0.48,0.481v43.409c0,11.244,8.274,18.979,20.416,18.979S124.351,161.883,124.351,150.639"/>
			<path fill="#FFFFFF" d="M170.31,168.521c0,0,0.48,0,0.48-0.482v-60.916c0,0,0-0.481-0.48-0.481h-3.686c0,0-0.48,0-0.48,0.481
				v60.916c0,0,0,0.482,0.48,0.482H170.31z"/>
			<path fill="#FFFFFF" d="M249.99,110.15c0,0,0.48,0,0.48-0.48v-2.546c0,0,0-0.481-0.48-0.481h-30.249c0,0-0.48,0-0.48,0.481v2.546
				c0,0,0,0.48,0.48,0.48h12.081c0,0,0.48,0,0.48,0.48v57.409c0,0,0,0.482,0.48,0.482h4.166c0,0,0.48,0,0.48-0.482V110.63
				c0,0,0-0.48,0.479-0.48C237.907,110.15,249.99,110.15,249.99,110.15z"/>
			<path fill="#FFF499" d="M142.899,12.852c0,0-0.481,0-0.481,0.48V184.18c0,0,0,0.48,0.481,0.48h3.099c0,0,0.481,0,0.481-0.48
				V13.333c0,0,0-0.48-0.481-0.48h-3.099V12.852z"/>
			<path fill="#FFFFFF" d="M247.297,31.886c0,0,0.398-0.875-0.42-1.279c0,0-0.797-0.394-1.205-0.589
				c-2.057-1.077-5.703-2.124-10.074-2.124c-10.074,0-16.369,7.645-16.369,16.459c0,6.026,2.877,12.411,13.49,16.369
				c8.545,3.237,11.963,6.925,11.963,13.221c0,8.274-5.217,13.671-13.311,13.671c-3.539,0-6.191-0.604-8.316-1.483
				c-0.276-0.121-0.543-0.246-0.799-0.374c-0.031-0.015-1.482-0.69-1.482-0.69s-0.613-0.289-0.92,0.37l-0.918,1.974
				c0,0-0.427,0.827,0.379,1.346c0.317,0.204,0.376,0.231,0.376,0.231c2.346,1.345,6.049,2.584,12.399,2.584
				c10.162,0,17.717-7.195,17.717-17.808c0-5.037-1.889-12.501-14.301-16.999c-5.754-2.158-11.241-5.216-11.241-12.501
				c0-7.645,4.137-12.771,11.602-12.771c3.242,0,6.076,0.862,8.203,1.901c0.031,0.015,1.488,0.677,1.488,0.677
				s0.617,0.284,0.896-0.334L247.297,31.886z"/>
			<path fill="#FFFFFF" d="M210.553,109.734c0,0,0.397-0.875-0.421-1.279c0,0-0.796-0.394-1.204-0.588
				c-2.058-1.077-5.704-2.123-10.075-2.123c-10.072,0-16.368,7.645-16.368,16.458c0,6.026,2.877,12.411,13.49,16.369
				c8.545,3.237,11.962,6.925,11.962,13.22c0,8.275-5.216,13.672-13.311,13.672c-3.538,0-6.19-0.604-8.315-1.482
				c-0.275-0.123-0.543-0.248-0.799-0.375c-0.031-0.016-1.482-0.691-1.482-0.691s-0.613-0.289-0.919,0.369l-0.918,1.975
				c0,0-0.427,0.828,0.379,1.348c0.317,0.203,0.376,0.23,0.376,0.23c2.346,1.346,6.049,2.584,12.398,2.584
				c10.163,0,17.718-7.195,17.718-17.809c0-5.036-1.89-12.501-14.301-16.999c-5.756-2.158-11.241-5.216-11.241-12.5
				c0-7.646,4.137-12.772,11.601-12.772c3.242,0,6.078,0.862,8.205,1.901c0.03,0.016,1.487,0.678,1.487,0.678
				s0.616,0.283,0.897-0.334L210.553,109.734z"/>
			<path fill="#FFFFFF" d="M266.16,168.521c0,0,0.48,0,0.48-0.482v-60.916c0,0,0-0.481-0.48-0.481h-3.686c0,0-0.48,0-0.48,0.481
				v60.916c0,0,0,0.482,0.48,0.482H266.16z"/>
		</g>
	</g>
</g>
</svg>
